<?xml version="1.0" standalone="no"?><!DOCTYPE svg PUBLIC "-//W3C//DTD SVG 1.1//EN" "http://www.w3.org/Graphics/SVG/1.1/DTD/svg11.dtd"><svg class="icon" width="200px" height="200.00px" viewBox="0 0 1024 1024" version="1.1" xmlns="http://www.w3.org/2000/svg"><path d="M880 296v528a200 200 0 0 1-200 200H344a200 200 0 0 1-200-200V296a32 32 0 0 1 32-32h672a32 32 0 0 1 32 32z" fill="#325FD3" /><path d="M928 224H96a32 32 0 1 1 0-64h280V80A80 80 0 0 1 456 0h112a80 80 0 0 1 80 80v80h280a32 32 0 1 1 0 64z" fill="#FCB16E" /></svg>