<?xml version="1.0" standalone="no"?><!DOCTYPE svg PUBLIC "-//W3C//DTD SVG 1.1//EN" "http://www.w3.org/Graphics/SVG/1.1/DTD/svg11.dtd"><svg class="icon" width="200px" height="200.00px" viewBox="0 0 1024 1024" version="1.1" xmlns="http://www.w3.org/2000/svg"><path fill="#000000" d="M307.2 580.266667c-98.986667 0-170.666667 96.597333-170.666667 197.632A183.637333 183.637333 0 0 0 173.056 887.466667H853.333333V406.186667a350.549333 350.549333 0 0 0-143.36-30.72 358.058667 358.058667 0 0 0-332.8 231.082666A84.992 84.992 0 0 0 307.2 580.266667zM877.568 0H146.432A146.432 146.432 0 0 0 0 146.432v731.136A146.432 146.432 0 0 0 146.432 1024h731.136A146.432 146.432 0 0 0 1024 877.568V146.432A146.432 146.432 0 0 0 877.568 0zM887.466667 955.733333H136.533333a65.194667 65.194667 0 0 1-68.266666-68.266666V136.533333a65.194667 65.194667 0 0 1 68.266666-68.266666h750.933334a65.194667 65.194667 0 0 1 68.266666 68.266666v750.933334a64.170667 64.170667 0 0 1-68.266666 68.266666zM273.066667 409.6a136.533333 136.533333 0 1 0-136.533334-136.533333 136.533333 136.533333 0 0 0 136.533334 136.533333z m0 0" /></svg>