<?xml version="1.0" standalone="no"?><!DOCTYPE svg PUBLIC "-//W3C//DTD SVG 1.1//EN" "http://www.w3.org/Graphics/SVG/1.1/DTD/svg11.dtd"><svg class="icon" width="200px" height="200.00px" viewBox="0 0 1024 1024" version="1.1" xmlns="http://www.w3.org/2000/svg"><path fill="#000000" d="M512 346.666667a165.333333 165.333333 0 1 0 0 330.666666 165.333333 165.333333 0 0 0 0-330.666666z m0 74.666666a90.666667 90.666667 0 1 1 0 181.333334 90.666667 90.666667 0 0 1 0-181.333334zM517.909333 48c-39.552 0-78.485333 4.949333-116.138666 14.656a37.333333 37.333333 0 0 0-27.946667 38.08 90.666667 90.666667 0 0 1-139.925333 80.853333 37.333333 37.333333 0 0 0-46.933334 5.184 463.296 463.296 0 0 0-116.266666 201.194667 37.333333 37.333333 0 0 0 19.008 43.2A90.666667 90.666667 0 0 1 139.242667 512a90.666667 90.666667 0 0 1-49.536 80.853333 37.333333 37.333333 0 0 0-19.029334 43.2 463.36 463.36 0 0 0 116.288 201.173334 37.333333 37.333333 0 0 0 46.912 5.141333 90.666667 90.666667 0 0 1 94.698667-2.432 90.602667 90.602667 0 0 1 45.354667 78.72l-0.128 4.586667a37.333333 37.333333 0 0 0 27.946666 38.101333c37.674667 9.706667 76.586667 14.656 116.16 14.656 39.552 0 78.485333-4.949333 116.138667-14.656a37.333333 37.333333 0 0 0 27.946667-38.08 90.666667 90.666667 0 0 1 139.925333-80.853333 37.333333 37.333333 0 0 0 46.933333-5.184 463.317333 463.317333 0 0 0 116.266667-201.194667 37.333333 37.333333 0 0 0-19.008-43.2A90.666667 90.666667 0 0 1 896.576 512a90.666667 90.666667 0 0 1 49.536-80.832 37.333333 37.333333 0 0 0 19.029333-43.221333 463.36 463.36 0 0 0-116.288-201.173334 37.333333 37.333333 0 0 0-46.912-5.141333 90.666667 90.666667 0 0 1-94.698666 2.432 90.624 90.624 0 0 1-45.226667-83.306667 37.333333 37.333333 0 0 0-27.946667-38.101333 464.768 464.768 0 0 0-116.16-14.656z m11.072 74.816a391.253333 391.253333 0 0 1 54.506667 5.333333l5.44 1.002667 0.448 2.986667a165.184 165.184 0 0 0 80.533333 116.586666l5.653334 3.136a165.184 165.184 0 0 0 133.184 9.194667l5.141333-1.984 1.664 1.941333a388.693333 388.693333 0 0 1 68.608 118.592l0.853333 2.453334-2.410666 1.92A165.184 165.184 0 0 0 821.909333 512l0.106667 6.058667A165.184 165.184 0 0 0 882.602667 640l2.389333 1.898667-0.853333 2.474666a388.650667 388.650667 0 0 1-68.586667 118.613334l-1.685333 1.898666-5.12-1.941333a165.12 165.12 0 0 0-138.837334 12.309333l-5.184 3.114667a165.184 165.184 0 0 0-75.349333 113.472l-0.448 2.965333-5.44 1.024c-21.504 3.626667-43.413333 5.482667-65.578667 5.482667l-11.072-0.149333a391.253333 391.253333 0 0 1-54.506666-5.333334l-5.461334-1.024-0.426666-2.986666a165.184 165.184 0 0 0-80.533334-116.565334l-5.653333-3.136a165.184 165.184 0 0 0-133.184-9.194666l-5.162667 1.962666-1.642666-1.92a388.693333 388.693333 0 0 1-68.608-118.592l-0.874667-2.474666 2.432-1.898667A165.184 165.184 0 0 0 213.909333 512l-0.106666-6.058667A165.184 165.184 0 0 0 153.216 384l-2.410667-1.92 0.853334-2.453333a388.629333 388.629333 0 0 1 68.608-118.613334l1.664-1.92 5.12 1.962667a165.12 165.12 0 0 0 138.858666-12.309333l5.184-3.114667a165.184 165.184 0 0 0 75.349334-113.472l0.426666-2.986667 5.461334-1.002666a392.405333 392.405333 0 0 1 65.578666-5.482667l11.072 0.149333z" /></svg>