<?xml version="1.0" standalone="no"?><!DOCTYPE svg PUBLIC "-//W3C//DTD SVG 1.1//EN" "http://www.w3.org/Graphics/SVG/1.1/DTD/svg11.dtd"><svg class="icon" width="200px" height="200.00px" viewBox="0 0 1024 1024" version="1.1" xmlns="http://www.w3.org/2000/svg"><path d="M807.563636 479.418182l-241.850181 139.636363a46.382545 46.382545 0 0 1-47.685819-0.907636 43.403636 43.403636 0 0 1-50.362181 3.677091l-235.054546-142.592a48.872727 48.872727 0 0 1-16.570182-64.954182l22.621091-41.169454a44.055273 44.055273 0 0 1 61.789091-17.384728l215.505455 130.769455 221.719272-128a46.545455 46.545455 0 0 1 63.581091 17.035636l23.272728 40.308364A46.545455 46.545455 0 0 1 807.563636 479.418182z" fill="#E5E5E5" /><path d="M954.181818 907.636364a46.545455 46.545455 0 0 1-46.545454 46.545454H116.363636a46.545455 46.545455 0 0 1-46.545454-46.545454V396.218182c0-0.674909 0.232727-1.303273 0.232727-1.978182a11.636364 11.636364 0 0 1 0.139636-1.256727 23.272727 23.272727 0 0 1 6.353455-15.965091L209.454545 244.130909V116.363636a46.545455 46.545455 0 0 1 46.545455-46.545454h512a46.545455 46.545455 0 0 1 46.545455 46.545454v129.28l132.142545 132.142546a23.063273 23.063273 0 0 1 4.096 6.330182 4.049455 4.049455 0 0 0 0.302545 0.349091 0.744727 0.744727 0 0 0 0 0.209454 24.459636 24.459636 0 0 1 1.466182 4.654546 24.157091 24.157091 0 0 1 1.233455 6.376727H954.181818v512zM209.454545 312.901818l-78.68509 78.685091L209.454545 439.272727v-126.370909z m-93.090909 125.835637V907.636364h791.272728V438.737455l-381.44 231.191272c-0.162909 0.139636-0.372364 0.186182-0.535273 0.325818l-2.327273 1.419637c-0.442182 0.256-0.954182 0.256-1.396363 0.488727a21.527273 21.527273 0 0 1-5.911273 2.071273 26.949818 26.949818 0 0 1-8.052364 0 21.527273 21.527273 0 0 1-5.911273-2.071273c-0.442182-0.232727-0.954182-0.232727-1.396363-0.488727l-2.327273-1.419637c-0.162909-0.139636-0.372364-0.186182-0.535273-0.325818zM768 116.363636H256v349.090909h-3.328L512 622.638545 771.328 465.454545H768V116.363636z m46.545455 322.909091l77.730909-47.127272L814.545455 314.414545v124.858182zM651.636364 395.636364H372.363636a23.272727 23.272727 0 0 1 0-46.545455h279.272728a23.272727 23.272727 0 0 1 0 46.545455z m-139.636364-139.636364h-139.636364a23.272727 23.272727 0 0 1 0-46.545455h139.636364a23.272727 23.272727 0 0 1 0 46.545455z"  /></svg>