<?xml version="1.0" standalone="no"?><!DOCTYPE svg PUBLIC "-//W3C//DTD SVG 1.1//EN" "http://www.w3.org/Graphics/SVG/1.1/DTD/svg11.dtd"><svg class="icon" width="200px" height="200.00px" viewBox="0 0 1024 1024" version="1.1" xmlns="http://www.w3.org/2000/svg"><path d="M288 104h448A120 120 0 0 1 856 224v576A120 120 0 0 1 736 920H288A120 120 0 0 1 168 800V224A120 120 0 0 1 288 104z m0 48A72 72 0 0 0 216 224v576A72 72 0 0 0 288 872h448A72 72 0 0 0 808 800V224A72 72 0 0 0 736 152H288z" fill="#36383F" /><path d="M313.44 623.488V104h164.384v519.488l-82.176-123.68-82.208 123.68z m48-471.488v312.512l34.208-51.456 34.176 51.456V152h-68.384z" fill="#5DD3B0" /><path d="M288 104h448A120 120 0 0 1 856 224v544A88 88 0 0 1 768 856H256A88 88 0 0 1 168 768V224A120 120 0 0 1 288 104z m0 48A72 72 0 0 0 216 224v544c0 22.08 17.92 40 40 40h512c22.08 0 40-17.92 40-40V224A72 72 0 0 0 736 152H288z" fill="#36383F" /></svg>