<?xml version="1.0" standalone="no"?><!DOCTYPE svg PUBLIC "-//W3C//DTD SVG 1.1//EN" "http://www.w3.org/Graphics/SVG/1.1/DTD/svg11.dtd"><svg class="icon" width="200px" height="200.00px" viewBox="0 0 1024 1024" version="1.1" xmlns="http://www.w3.org/2000/svg"><path fill="#2c2c2c" d="M512 522.666667a32 32 0 0 0-32 32v264.106666l-73.386667-73.386666a32 32 0 0 0-45.226666 45.226666l128 128a31.914667 31.914667 0 0 0 45.226666 0l128-128a32 32 0 1 0-45.226666-45.226666l-73.386667 73.386666V554.666667a32 32 0 0 0-32-32z"  /><path fill="#2c2c2c" d="M640 96a288 288 0 0 1 192 502.656 32 32 0 1 1-42.666667-47.701333 224 224 0 1 0-367.488-218.112 32 32 0 0 1-48.426666 19.669333 138.666667 138.666667 0 0 0-144.042667 236.970667 32 32 0 1 1-32.085333 55.381333 202.666667 202.666667 0 1 1 173.994666-364.8A288.085333 288.085333 0 0 1 640 96z"  /></svg>