<?xml version="1.0" standalone="no"?><!DOCTYPE svg PUBLIC "-//W3C//DTD SVG 1.1//EN" "http://www.w3.org/Graphics/SVG/1.1/DTD/svg11.dtd"><svg class="icon" width="200px" height="200.00px" viewBox="0 0 1024 1024" version="1.1" xmlns="http://www.w3.org/2000/svg"><path fill="#2c2c2c" d="M512 682.666667a128 128 0 1 1 0 256 128 128 0 0 1 0-256z m0 64a64 64 0 1 0 0 128 64 64 0 0 0 0-128zM512 384a128 128 0 1 1 0 256 128 128 0 0 1 0-256z m0 64a64 64 0 1 0 0 128 64 64 0 0 0 0-128zM512 85.333333a128 128 0 1 1 0 256 128 128 0 0 1 0-256z m0 64a64 64 0 1 0 0 128 64 64 0 0 0 0-128z"  /></svg>